<?xml version="1.0" encoding="utf-8"?>
<!-- Generator: Adobe Illustrator 25.4.1, SVG Export Plug-In . SVG Version: 6.00 Build 0)  -->
<svg version="1.1" id="Social_Icons" xmlns="http://www.w3.org/2000/svg" xmlns:xlink="http://www.w3.org/1999/xlink" x="0px"
	 y="0px" width="36px" height="36px" viewBox="0 0 36 36" style="enable-background:new 0 0 36 36;" xml:space="preserve">
<style type="text/css">
	.st0{fill:none;}
	.st1{fill-rule:evenodd;clip-rule:evenodd;fill:#FBBC05;}
	.st2{fill-rule:evenodd;clip-rule:evenodd;fill:#EA4335;}
	.st3{fill-rule:evenodd;clip-rule:evenodd;fill:#34A853;}
	.st4{fill-rule:evenodd;clip-rule:evenodd;fill:#4285F4;}
</style>
<g id="_x31__stroke">
	<g id="Google">
		<rect x="0.8" y="0.8" class="st0" width="34.4" height="34.4"/>
		<path class="st1" d="M8.2,18c0-1.1,0.2-2.2,0.5-3.2l-5.8-4.4c-1.1,2.3-1.8,4.9-1.8,7.6c0,2.7,0.6,5.3,1.8,7.6l5.8-4.4
			C8.4,20.2,8.2,19.1,8.2,18"/>
		<path class="st2" d="M18.4,7.8c2.4,0,4.6,0.9,6.3,2.3l5-5c-3.1-2.7-7-4.3-11.3-4.3c-6.8,0-12.6,3.9-15.4,9.6l5.8,4.4
			C10.1,10.8,13.9,7.8,18.4,7.8"/>
		<path class="st3" d="M18.4,28.2c-4.5,0-8.3-2.9-9.7-7l-5.8,4.4c2.8,5.7,8.6,9.6,15.4,9.6c4.2,0,8.2-1.5,11.2-4.3l-5.5-4.2
			C22.6,27.6,20.6,28.2,18.4,28.2"/>
		<path class="st4" d="M34.8,18c0-1-0.2-2.1-0.4-3.1h-16v6.6h9.2c-0.5,2.3-1.7,4-3.5,5.1l5.5,4.2C32.8,28,34.8,23.6,34.8,18"/>
	</g>
</g>
</svg>
